#define icon_width 70
#define icon_height 70
static char icon_bits[] = {
 0x00,0x00,0x00,0x00,0x00,0x00,0x00,0x00,0xc0,0x00,0x00,0x00,0x00,0x00,0x00,
 0x00,0x00,0xc0,0x00,0x00,0x00,0x00,0x00,0x00,0x00,0x00,0xc0,0x00,0x00,0x00,
 0x00,0x00,0x00,0x00,0x00,0xc0,0x00,0x00,0x00,0x00,0x00,0x00,0x00,0x00,0xc0,
 0x00,0x00,0x00,0x00,0x00,0x00,0x00,0x00,0xc0,0x00,0x00,0x00,0x00,0x00,0x00,
 0x00,0x00,0xc0,0x00,0x00,0x00,0x00,0x00,0x00,0x00,0x00,0xc0,0x00,0x80,0xff,
 0x3f,0x00,0x00,0x00,0x00,0xc0,0x00,0xf0,0xfe,0xef,0x01,0x00,0x00,0x00,0xc0,
 0x00,0x68,0x03,0xd8,0x02,0x00,0x00,0x00,0xc0,0x00,0xa8,0x02,0xa8,0x03,0x00,
 0x00,0x00,0xc0,0x00,0x68,0xfd,0xd7,0x02,0x00,0x00,0x00,0xc0,0x00,0x88,0xff,
 0xff,0xff,0xff,0xff,0x03,0xc0,0x00,0x08,0x00,0x00,0x00,0x00,0x00,0x04,0xc0,
 0x00,0x0b,0x00,0x00,0x00,0x00,0x00,0x08,0xc0,0x80,0x02,0x00,0x00,0x00,0x00,
 0x00,0x04,0xc0,0x80,0xfc,0xff,0x17,0x00,0x96,0x84,0x0a,0xc0,0x00,0x01,0x00,
 0x28,0x03,0x59,0x4a,0x05,0xc0,0x00,0xfe,0xff,0x17,0xa4,0x20,0x51,0x08,0xc0,
 0x00,0x10,0x00,0x40,0x58,0x00,0x20,0x04,0xc0,0x00,0x28,0x00,0x20,0x08,0x00,
 0x00,0x08,0xc0,0x00,0x58,0x55,0x15,0x00,0x00,0x00,0x04,0xc0,0x00,0xa8,0xaa,
 0x0a,0x00,0x20,0x00,0x08,0xc0,0x00,0x0b,0x00,0x00,0x00,0x20,0x11,0x04,0xc0,
 0x80,0x02,0x00,0x00,0x00,0x50,0x11,0x08,0xc0,0x80,0xfc,0xff,0x17,0x50,0x50,
 0x51,0x04,0xc0,0x00,0x01,0x00,0x28,0x51,0x90,0xaa,0x0a,0xc0,0x00,0xfe,0xff,
 0x17,0xa8,0x88,0xaa,0x05,0xc0,0x00,0x10,0x00,0x40,0xa4,0x08,0x84,0x08,0xc0,
 0x00,0x28,0x00,0x20,0x02,0x05,0x04,0x04,0xc0,0x00,0x58,0x55,0x15,0x02,0x05,
 0x04,0x08,0xc0,0x00,0xa8,0xaa,0x0a,0x00,0x02,0x00,0x04,0xc0,0x00,0x0b,0x00,
 0x00,0x00,0x02,0x00,0x08,0xc0,0x80,0x02,0x00,0x00,0x00,0x00,0x40,0x04,0xc0,
 0x80,0xfc,0xff,0x17,0x00,0x00,0x40,0x08,0xc0,0x00,0x01,0x00,0x28,0x61,0x40,
 0x40,0x04,0xc0,0x00,0xfe,0xff,0x17,0x90,0xa0,0xa0,0x08,0xc0,0x00,0x18,0x00,
 0x40,0x0a,0x19,0xa9,0x04,0xc0,0x00,0x28,0x00,0x20,0x04,0x05,0x96,0x0a,0xc0,
 0x00,0x58,0x55,0x15,0x00,0x02,0x00,0x05,0xc0,0x00,0xa8,0xaa,0x0a,0x00,0x00,
 0x00,0x09,0xc0,0x00,0x08,0x00,0x00,0x00,0x00,0x00,0x04,0xc0,0x00,0x18,0x00,
 0x00,0x00,0x00,0x00,0x08,0xc0,0x00,0x70,0x00,0x00,0x00,0x00,0x00,0x04,0xc0,
 0x00,0x80,0xff,0xff,0xff,0xff,0xff,0x03,0xc0,0x00,0x00,0x00,0x00,0x00,0x00,
 0x00,0x00,0xc0,0x00,0x00,0x00,0x00,0x00,0x00,0x00,0x00,0xc0,0x00,0x00,0x00,
 0x00,0x00,0x00,0x00,0x00,0xc0,0x00,0x00,0x00,0x00,0x00,0x00,0x00,0x00,0xc0,
 0x00,0x00,0x00,0x00,0x00,0x00,0x00,0x00,0xc0,0x00,0x00,0x00,0x00,0x00,0x00,
 0x00,0x00,0xc0,0x00,0x00,0x00,0x18,0x00,0x00,0x00,0x00,0xc0,0x00,0x00,0x00,
 0x04,0x00,0x00,0x04,0x00,0xc0,0x00,0x00,0x00,0x04,0x00,0x00,0x04,0x00,0xc0,
 0x40,0xc3,0xd1,0x9e,0x66,0x38,0x9e,0xa3,0xc1,0xc0,0x24,0x32,0x84,0x99,0x44,
 0x44,0x64,0xc0,0x40,0x24,0x12,0x84,0x88,0x44,0x44,0x24,0xc0,0x40,0xe4,0x13,
 0x84,0x88,0x7c,0xc4,0x27,0xc0,0x40,0x24,0x10,0x84,0x88,0x04,0x44,0x20,0xc0,
 0x40,0x24,0x12,0x84,0x88,0x44,0x44,0x24,0xc0,0xc0,0xc3,0x11,0x84,0x88,0x38,
 0x98,0x23,0xc0,0x40,0x00,0x00,0x00,0x00,0x00,0x00,0x00,0xc0,0x40,0x00,0x00,
 0x00,0x00,0x00,0x00,0x00,0xc0,0x00,0x00,0x00,0x00,0x00,0x00,0x00,0x00,0xc0,
 0x00,0x00,0x00,0x00,0x00,0x00,0x00,0x00,0xc0,0x00,0x00,0x00,0x00,0x00,0x00,
 0x00,0x00,0xc0,0x00,0x00,0x00,0x00,0x00,0x00,0x00,0x00,0xc0,0x00,0x00,0x00,
 0x00,0x00,0x00,0x00,0x00,0xc0,0x00,0x00,0x00,0x00,0x00,0x00,0x00,0x00,0xc0
 };
